<svg xmlns="http://www.w3.org/2000/svg" width="8.004in" height="3.478in" viewBox="0 0 576.302 250.4" fill="#fff">
  <g>
    <g>
      <path d="M302.341,76.726H283.1l.6,1.09v43.72H272.383V77.816l.6-1.09h-19.24V66.375h48.6Z"/>
      <path d="M352.984,121.536h-44.6V66.375h44.6V76.726H318.632l1.065,1.09V87.69l-1.065,1.09h31.156V99.13H318.632l1.065,1.09V110.1l-1.065,1.089h34.352Z"/>
      <path d="M415.405,121.536H401.092l-11.251-14.71-2.93-4.9h-.133l-2.863,4.9L372.6,121.536H358.417l21.437-27.58L358.417,66.375h14.247l11.317,14.641,2.93,4.767h.133l2.8-4.767,11.317-14.641h14.113l-21.3,27.512Z"/>
      <path d="M479.717,121.536H467.334l-5.658-12.122.665-1.022h-27.1l.666,1.022-5.592,12.122H417.87l25.964-55.161h9.985ZM457.281,98.722l-1.132-1.09-5.591-11.985-1.664-5.039-.134.067L447.1,85.647,441.5,97.632l-1.132,1.09Z"/>
      <path d="M506.682,122.216c-9.587,0-18.841-3.064-25.631-9.738l7.855-8.035a26.64,26.64,0,0,0,18.175,7.49c8.855,0,12.05-2.859,12.05-5.924,0-1.771-1.531-4.5-8.588-6.265-1.2-.273-8.722-2.179-9.986-2.52-9.587-2.519-18.175-6.2-18.175-15.527,0-8.784,8.188-16,23.634-16,9.653,0,17.642,3.337,23.5,9.466L521.594,83.2a20.8,20.8,0,0,0-15.711-7.219c-8.788,0-11.984,2.86-11.984,5.447,0,2.316,2.463,3.746,11.185,5.994,1.2.34,7.456,1.974,8.721,2.247,11.251,2.792,16.843,8.785,16.843,16.139C530.648,114.317,523.325,122.216,506.682,122.216Z"/>
      <path d="M302.341,145.3H283.1l.6,1.09v43.72H272.383v-43.72l.6-1.09h-19.24V134.945h48.6Z"/>
      <path d="M331.708,190.787c-9.587,0-18.841-3.065-25.631-9.739l7.856-8.035a26.633,26.633,0,0,0,18.174,7.49c8.855,0,12.05-2.859,12.05-5.923,0-1.772-1.531-4.5-8.588-6.266-1.2-.272-8.721-2.179-9.986-2.52-9.587-2.519-18.175-6.2-18.175-15.527,0-8.784,8.189-16,23.634-16,9.653,0,17.643,3.337,23.5,9.466l-7.923,8.036a20.8,20.8,0,0,0-15.711-7.219c-8.788,0-11.983,2.861-11.983,5.448,0,2.315,2.463,3.746,11.184,5.993,1.2.341,7.456,1.974,8.721,2.247,11.251,2.792,16.844,8.785,16.844,16.14C355.675,182.887,348.352,190.787,331.708,190.787Z"/>
      <path d="M419.326,190.106H406.943l-5.658-12.122.665-1.022h-27.1l.666,1.022-5.591,12.122h-12.45l25.964-55.161h9.986Zm-22.435-22.813-1.132-1.09-5.592-11.986-1.664-5.039-.134.068-1.664,4.971L381.113,166.2l-1.132,1.09Z"/>
    </g>
    <g>
      <polygon points="83.923 166.162 93.157 152.952 97.975 150.361 106.081 151.214 110.646 147.078 109.547 145.938 96.841 144.601 89.324 148.644 82.357 158.612 68.445 150.051 62.283 133.803 41.938 114.845 88.915 114.845 88.915 90.767 83.306 85.684 83.306 109.236 27.69 109.236 57.502 137.015 63.879 153.826 83.923 166.162"/>
      <polygon points="88.915 44.752 125.484 44.752 125.484 76.379 141.292 82.307 154.87 84.004 169.163 90.555 176.558 88.09 188.557 88.635 198.88 89.178 209.838 93.943 209.838 112.508 210.048 113.12 216.921 115.872 215.447 111.573 215.447 90.265 200.188 83.63 188.832 83.033 175.772 82.439 169.489 84.534 156.422 78.545 142.643 76.823 131.093 72.491 131.093 39.143 83.306 39.143 83.306 62.372 88.915 64.618 88.915 44.752"/>
      <polygon points="211.357 150.217 192.915 163.236 169.224 176.266 163.594 196.285 166.282 209.726 148.146 205.303 139.479 194.088 137.75 184.288 130.522 176.257 124.975 178.478 132.505 186.845 134.196 196.424 144.908 210.287 173.51 217.263 169.358 196.507 173.987 180.048 195.756 168.075 216.208 153.659 219.986 140.435 213.399 143.073 211.357 150.217"/>
      <path d="M61.432,58.488l76.94,69.715-76.94,69.715L235.546,128.2Zm84.473,78.028,9.175-8.313-9.175-8.314L115.264,92.126l90.1,36.077-90.1,36.076Z"/>
    </g>
  </g>
</svg>